<?xml version="1.0" encoding="UTF-8"?>
<svg width="88px" height="85px" viewBox="0 0 88 85" version="1.1" xmlns="http://www.w3.org/2000/svg" xmlns:xlink="http://www.w3.org/1999/xlink">
    <title>Hand_Heart_Icon</title>
    <g id="Page-1" stroke="none" stroke-width="1" fill="none" fill-rule="evenodd">
        <g id="African-Rainbow-Capital---Landing-Page---20230126-V3" transform="translate(-67.000000, -4165.000000)" fill="#FFFFFF">
            <g id="Hand_Heart_Icon" transform="translate(67.000000, 4165.000000)">
                <path d="M0,65.9437021 C5.52851032,60.5028443 11.0818883,55.0868542 16.576421,49.6120187 C20.1071433,46.0940996 24.3179112,44.1982446 29.2823431,44.0054583 C31.9414645,43.9022942 34.5924608,44.2191728 36.9758214,45.4051902 C39.7378607,46.7800545 42.6143898,47.1771992 45.6241213,47.1584868 C48.1990372,47.1427291 50.7840478,47.0538455 53.346653,47.2412151 C56.0793926,47.4411416 58.3142856,48.6796027 59.3412482,51.3906755 C60.4561094,54.3339289 58.9216979,57.5280754 55.8996557,58.8822575 C54.5641859,59.4805598 53.1664236,59.6831947 51.7236041,59.6836872 C48.918231,59.6851645 46.1131042,59.6841796 43.3077311,59.6844258 C43.0787512,59.6844258 42.8490327,59.6765469 42.6207914,59.6898425 C41.5810257,59.7501652 40.8862071,60.3639791 40.8820215,61.2183449 C40.8778358,62.0663092 41.6758185,62.8386855 42.660432,62.84164 C47.8415331,62.8564129 53.0226341,62.8569054 58.2037351,62.8293293 C58.5250456,62.8276058 58.8916597,62.5993645 59.1583105,62.3804794 C64.7072566,57.8193476 70.2374904,53.2358103 75.7893912,48.6781255 C77.3001661,47.4376946 78.9313401,46.3802014 80.8690517,45.9094384 C82.7713083,45.4470468 84.6095491,45.5420857 86.3480728,46.5444268 C88.1528283,47.5851773 88.4847261,49.4460699 87.0992746,51.0043642 C82.7063076,55.9458981 78.3022609,60.8775834 73.9023999,65.812962 C71.3501358,68.6761955 68.7946709,71.5362283 66.2461,74.4026627 C63.9090278,77.0312534 60.927611,78.4100571 57.4707532,78.4533909 C49.5143174,78.5528617 41.5556656,78.4940164 33.5979986,78.4986944 C30.9930445,78.5001717 28.3878442,78.4804745 25.7836288,78.5198689 C25.4093821,78.5255319 24.9496988,78.7188106 24.6815707,78.9807833 C22.7394272,80.8781156 20.8364319,82.815581 18.6626002,85 C18.4397757,84.6296927 18.3132212,84.2849918 18.0778397,84.0488717 C12.2981902,78.2505098 6.50819958,72.4627351 0.715008193,66.677915 C0.502032268,66.4651853 0.239567139,66.3016986 0,66.1155601 C0,66.058192 0,66.0010702 0,65.9437021" id="Fill-1"></path>
                <path d="M51.483446,4.45014138 C53.1771586,3.30721162 54.6960586,2.00079513 56.4390142,1.15874003 C61.5098109,-1.29134486 67.397795,0.259070631 70.6963366,4.72319375 C73.9473587,9.12305478 73.6354044,15.2914777 69.8614217,19.417794 C68.0864582,21.3587063 66.1706598,23.1710945 64.3109983,25.0339568 C60.3279792,29.0228851 56.3383122,33.0049193 52.3584939,36.9970484 C52.1393626,37.2169184 51.9852321,37.5015428 51.7880139,37.7736104 C51.4539002,37.4710122 51.2808111,37.3269764 51.1222487,37.1686602 C45.4144939,31.4650911 39.6971367,25.7708781 34.0051397,20.051305 C29.9829724,16.0099329 29.2066566,10.197783 32.0245867,5.58199147 C35.5878093,-0.255272384 43.3078788,-1.76260026 48.9479245,2.30757895 C49.8936361,2.99008677 50.7371685,3.8144144 51.483446,4.45014138" id="Fill-4"></path>
            </g>
        </g>
    </g>
</svg>